<svg width="30" height="13" viewBox="0 0 30 13" fill="none" xmlns="http://www.w3.org/2000/svg">
<g clip-path="url(#clip0_64_60)">
<path d="M12.097 1.7937C12.097 1.7937 12.813 0.922975 13.7747 0.417952C14.7364 -0.0870719 15.3057 1.12969e-06 15.4437 0.00870843C15.5817 0.0174157 16.0259 0.0217694 16.69 0.174147C17.3542 0.326525 18.0572 0.522439 18.6998 0.748829C19.3423 0.975219 20.1057 1.24515 20.5369 1.39317C20.9682 1.54119 21.6065 1.73711 21.9429 1.82418C21.3736 1.74581 20.8863 1.63697 20.5413 1.5499C20.1962 1.46283 19.062 1.14066 18.4151 0.953451C17.7682 0.766244 16.9661 0.557268 16.496 0.457134C16.0259 0.357 15.448 0.222037 14.9909 0.269927C14.5337 0.317818 13.9213 0.496317 13.6884 0.653049C13.4555 0.80978 12.9337 1.09712 12.6448 1.3148C12.3558 1.53249 12.0884 1.78935 12.0884 1.78935L12.097 1.7937Z" fill="#020202"/>
<path d="M22.0421 1.99831C22.0421 1.99831 23.448 3.7093 24.0259 4.48425C24.6038 5.2592 25.5051 6.58271 25.9666 7.31847C26.4281 8.05424 26.5359 8.22403 26.5359 8.22403C26.5359 8.22403 25.4318 6.89181 24.8841 6.16475C24.3364 5.4377 23.6248 4.45377 23.2841 3.94004C22.9434 3.42631 22.4863 2.74714 22.3741 2.53816C22.262 2.32919 22.0421 1.99396 22.0421 1.99396V1.99831Z" fill="#020202"/>
<path d="M14.5165 8.50702C14.5165 8.50702 14.6847 8.18049 14.8874 7.89751C15.0901 7.61452 15.3876 7.27493 15.6162 7.11385C15.8448 6.95276 16.1165 6.76991 16.4787 6.6959C16.841 6.62189 17.3197 6.60447 17.6863 6.66107C18.0529 6.71767 18.5488 6.83522 19.1224 7.0616C19.696 7.28799 20.3946 7.61017 20.8043 7.77996C21.214 7.94975 21.6712 8.14566 22.1628 8.29804C22.6545 8.45042 23.4049 8.64633 24.0087 8.75953C24.6124 8.87272 25.8372 9.07299 26.3116 9.147C26.786 9.22102 27.3122 9.29938 27.3122 9.29938L28.8734 11.5894L27.2087 9.44305C27.2087 9.44305 25.6906 9.28632 25.2378 9.22972C24.7849 9.17313 23.3876 8.92932 22.7752 8.78565C22.1628 8.64198 21.2701 8.32852 20.7957 8.11519C20.3213 7.90186 19.3165 7.43602 18.9154 7.27493C18.5143 7.11385 18.0011 6.89181 17.4965 6.84392C16.9919 6.79603 16.6814 6.76556 16.2027 6.94406C15.724 7.12256 15.3617 7.4752 15.2108 7.61887C15.0599 7.76254 14.7364 8.21968 14.5941 8.43736C14.5035 8.57668 14.469 8.60715 14.469 8.60715L14.5122 8.50266L14.5165 8.50702Z" fill="#020202"/>
<path d="M15.09 8.47221C15.4049 8.07168 15.5903 7.85835 15.8663 7.65808C16.1423 7.45781 16.5132 7.28367 16.8927 7.21836C17.2722 7.15306 17.5655 7.13564 17.958 7.2053C18.3504 7.27496 18.7213 7.37945 19.0103 7.50135C19.2992 7.62325 19.6528 7.82352 19.7865 7.89753C19.9202 7.97154 19.9979 8.03685 19.9979 8.03685C19.9979 8.03685 19.7003 7.88883 19.4976 7.79305C19.2949 7.69726 18.9197 7.55795 18.6264 7.49264C18.3332 7.42734 18.0183 7.37074 17.6733 7.3751C17.3283 7.37945 16.8669 7.44475 16.5348 7.62761C16.2027 7.81046 15.931 8.01943 15.6464 8.36773C15.3617 8.71602 15.1159 9.17751 15.0167 9.2907C14.9175 9.4039 14.8701 9.45179 14.8313 9.43002C14.7925 9.40825 14.7666 9.32988 14.7925 9.20798C14.8183 9.08608 14.8572 8.89887 14.9348 8.74649C15.0124 8.59412 15.0857 8.47221 15.0857 8.47221H15.09Z" fill="#020202"/>
<path d="M16.6728 8.62024C16.6728 8.62024 16.3752 8.76391 16.2847 8.82922C16.1941 8.89452 15.931 9.07737 15.8404 9.1688C15.7499 9.26023 15.6119 9.45179 15.5687 9.49968C15.5256 9.54757 15.4006 9.68253 15.2884 9.65205C15.1763 9.62158 15.1547 9.49968 15.172 9.42131C15.1892 9.34295 15.2755 9.19928 15.4092 9.10785C15.5429 9.01642 15.7326 8.89452 15.8879 8.82486C16.0431 8.7552 16.2847 8.6899 16.427 8.66378C16.5693 8.63765 16.6728 8.62459 16.6728 8.62459V8.62024Z" fill="#020202"/>
<path d="M16.0302 9.55625C16.0302 9.55625 16.2027 9.34727 16.3925 9.21231C16.5822 9.07734 16.8626 8.91626 17.1256 8.82919C17.3887 8.74211 17.6949 8.67681 18.0529 8.6681C18.4108 8.65939 18.8033 8.70293 19.1181 8.76388C19.4329 8.82483 20.2394 9.09041 20.4766 9.16442C20.7138 9.23843 21.8178 9.53448 22.124 9.59978C22.4302 9.66509 23.7628 9.94807 24.0561 10.0047C24.3494 10.0613 25.3542 10.2267 25.7122 10.2702C26.0701 10.3138 26.6351 10.3921 27.0189 10.3965C27.4027 10.4009 27.5795 10.3921 27.5795 10.3921C27.5795 10.3921 26.9456 10.4662 26.4496 10.4575C25.9537 10.4487 24.9574 10.3704 24.4313 10.3094C23.9051 10.2485 22.6415 10.0221 22.2275 9.94372C21.8135 9.86536 20.6922 9.54319 20.2739 9.41258C19.8555 9.28197 19.3122 9.04687 18.8809 8.9598C18.4496 8.87272 17.9062 8.79 17.4448 8.88143C16.9833 8.97286 16.6987 9.07734 16.4874 9.2036C16.276 9.32986 16.0259 9.55189 16.0259 9.55189L16.0302 9.55625Z" fill="#020202"/>
<path d="M15.9612 10.1963C16.151 10.0874 16.2933 10.0047 16.5218 9.95247C16.7504 9.90023 17.0135 9.87411 17.3283 9.87846C17.6431 9.88281 18.0442 9.90458 18.4625 9.95247C18.8809 10.0004 19.7434 10.0961 20.1876 10.1614C20.6318 10.2268 21.4469 10.3269 21.8394 10.3922C22.2318 10.4575 23.1375 10.5968 23.4998 10.6491C23.862 10.7013 24.6512 10.8232 25.0221 10.8754C25.393 10.9277 25.9882 11.0191 26.3849 11.0757C26.7817 11.1323 28.0281 11.3152 28.0281 11.3152L26.9628 11.3282C26.9628 11.3282 25.2938 11.2847 24.9143 11.2673C24.5348 11.2499 23.5084 11.1671 22.952 11.1149C22.3957 11.0627 21.3779 10.9016 20.9208 10.8276C20.4636 10.7535 19.5752 10.5576 19.1957 10.4836C18.8162 10.4096 18.2555 10.2616 17.7553 10.1876C17.255 10.1136 16.8453 10.0395 16.496 10.0961C16.1466 10.1527 15.9698 10.1963 15.9698 10.1963H15.9612Z" fill="#020202"/>
<path d="M28.606 11.0365L29.4081 11.8768L29.4211 11.9029V11.9203L24.6771 11.6199L17.8588 11.1715L16.0992 11.0583C16.0992 11.0583 15.7671 11.363 15.4006 11.498C15.034 11.633 14.8442 11.6983 14.5682 11.6939C14.2922 11.6896 14.1714 11.6591 13.9687 11.5677C13.7661 11.4762 13.4038 11.276 13.2356 11.1192C13.0674 10.9625 12.9855 10.8841 12.9855 10.8841C12.9855 10.8841 11.4717 11.141 11.4243 11.1497C11.3768 11.1584 9.90621 11.4022 9.75527 11.4283C9.60432 11.4545 7.64637 11.781 7.43505 11.8158C7.22373 11.8506 4.91213 12.2381 4.78707 12.2555C4.662 12.2729 2.69111 12.6082 2.41941 12.643C2.14771 12.6778 0.82372 12.9173 0.642588 12.9347C0.461456 12.9521 0.362265 12.9913 0.293262 12.9913C0.224259 12.9913 0.112129 13.0087 0.0819408 13C0.0517521 12.9913 0 12.9782 0 12.9173C0 12.8563 0.159569 11.4283 0.185445 11.2673C0.211321 11.1062 0.556335 8.38949 0.556335 8.38949L0.836659 6.14736C0.836659 6.14736 1.0566 4.4712 1.06954 4.34059C1.08248 4.20999 1.19461 3.33925 1.21617 3.17382C1.23774 3.00838 1.30674 2.43805 1.30674 2.43805L1.17736 3.95312L1.01779 5.7207L0.845284 7.66678L0.685715 9.49967L0.556335 10.9233L0.426955 12.3426L0.409704 12.5559L1.62156 12.3426C1.62156 12.3426 3.06631 12.0814 3.21725 12.0553C3.3682 12.0291 5.27009 11.6896 5.41672 11.6634C5.56335 11.6373 7.4178 11.3108 7.52561 11.2847C7.63343 11.2585 10.2038 10.8145 10.2598 10.8058C10.3159 10.7971 12.5499 10.3965 12.662 10.3748C12.7741 10.353 13.0372 10.3094 13.0372 10.3094C13.0372 10.3094 13.7488 9.76089 14.4302 9.76524C15.1116 9.7696 15.6723 10.218 15.8103 10.3312C15.9483 10.4444 16.0431 10.5576 16.0431 10.5576C16.0431 10.5576 18.441 10.784 18.5229 10.7927C18.6049 10.8014 20.938 11.0365 21.1795 11.0539C21.421 11.0713 23.4092 11.2803 23.5774 11.2934C23.7456 11.3064 25.2938 11.4588 25.4318 11.4719C25.5698 11.4849 27.8211 11.707 27.9547 11.72C28.0884 11.7331 29.3219 11.855 29.3219 11.855L28.606 11.0278V11.0365Z" fill="#020202"/>
<path d="M12.0755 9.11654C12.4377 9.10348 12.8776 9.10348 13.1407 9.16443C13.4038 9.22538 13.5418 9.26457 13.559 9.2994C13.5763 9.33423 13.5504 9.33858 13.5116 9.34293C13.4728 9.34729 12.9337 9.35599 12.7094 9.36906C12.4852 9.38212 11.8642 9.46484 11.545 9.53014C11.2259 9.59544 10.3202 9.85231 9.66901 10.0787C9.0178 10.3051 7.94826 10.6621 7.67225 10.7448C7.39623 10.8275 6.70621 11.0452 6.31375 11.1497C5.9213 11.2542 4.87332 11.5372 4.45499 11.6242C4.03666 11.7113 3.03181 11.9203 2.66954 11.9769C2.30728 12.0335 1.75526 12.1162 1.44475 12.1641C1.13423 12.212 0.931538 12.2294 0.888411 12.2294C0.845284 12.2294 0.789219 12.2033 0.776281 12.151C0.763343 12.0988 0.832346 10.575 0.845284 10.3965C0.858222 10.218 1.09542 7.74079 1.10836 7.63195C1.1213 7.52311 1.38437 4.97622 1.40162 4.80643C1.41887 4.63664 1.6345 2.59477 1.6345 2.59477C1.6345 2.59477 1.77251 2.59042 1.85445 2.57301C1.93639 2.55559 2.06146 2.53382 2.19515 2.43804C2.32884 2.34226 2.36766 2.30743 2.36766 2.30743C2.36766 2.30743 2.31591 2.37274 2.27278 2.41192C2.22965 2.4511 2.1434 2.51206 2.06146 2.54688C1.97952 2.58171 1.86739 2.61654 1.78545 2.6209C1.70351 2.62525 1.66038 2.6296 1.66038 2.6296C1.66038 2.6296 1.48356 4.61051 1.48356 4.66276C1.48356 4.715 1.26361 7.24883 1.2593 7.36638C1.25499 7.48392 1.10404 9.42565 1.09973 9.50837C1.09542 9.59109 1.00485 11.6547 0.996228 11.7287C0.987602 11.8027 0.996228 11.99 0.996228 11.99C0.996228 11.99 1.83289 11.8593 2.05283 11.8245C2.27278 11.7897 4.16604 11.3848 4.43343 11.3195C4.70081 11.2542 6.19731 10.8275 6.4302 10.7622C6.66308 10.6969 8.11645 10.205 8.38384 10.1135C8.65122 10.0221 9.9364 9.54755 10.372 9.42565C10.8076 9.30375 11.2388 9.20362 11.5536 9.16008C11.8685 9.11654 12.0755 9.11219 12.0755 9.11219V9.11654Z" fill="#020202"/>
<path d="M13.5289 9.05994C13.5289 9.05994 13.2701 8.75954 13.007 8.59845C12.744 8.43737 12.4248 8.32853 12.1316 8.359C11.8383 8.38948 11.4933 8.38077 10.648 8.74212C9.80271 9.10348 8.75904 9.63462 8.52184 9.73476C8.28465 9.83489 7.73262 10.083 7.44368 10.1919C7.15473 10.3007 6.99084 10.3704 6.99084 10.3704C6.99084 10.3704 7.49974 10.2703 7.99139 10.1222C8.48303 9.97421 9.56551 9.58238 9.99678 9.39082C10.428 9.19926 11.213 8.80307 11.6313 8.67682C12.0496 8.55056 12.3946 8.52879 12.5801 8.57233C12.7655 8.61587 12.9337 8.6507 13.1709 8.81178C13.4081 8.97287 13.5289 9.06429 13.5289 9.06429V9.05994Z" fill="#020202"/>
<path d="M5.5461 10.6925C5.5461 10.6925 5.17952 10.8667 4.85176 10.9538C4.524 11.0408 3.93316 11.1758 3.55796 11.2629C3.18276 11.35 2.69111 11.4588 2.41941 11.5328C2.14771 11.6068 1.85014 11.6939 1.67763 11.7548C1.50513 11.8158 1.42319 11.868 1.31106 11.8854C1.19893 11.9029 1.11699 11.8724 1.09542 11.7984C1.07386 11.7244 1.15149 10.9581 1.1903 10.5881C1.22911 10.218 1.32399 8.89885 1.3585 8.58103C1.393 8.26321 1.43181 7.64064 1.47062 7.24881C1.50944 6.85698 1.52669 6.60883 1.52669 6.60883C1.52669 6.60883 1.51806 7.67547 1.50513 7.92798C1.49219 8.18049 1.46631 10.0264 1.46631 10.3486C1.46631 10.6708 1.44044 11.511 1.44044 11.511C1.44044 11.511 1.81564 11.4022 2.09596 11.3282C2.37629 11.2542 3.28195 11.1061 3.65715 11.0495C4.03235 10.993 4.55419 10.9233 4.83882 10.8667C5.12346 10.8101 5.27009 10.7883 5.37791 10.7535C5.48572 10.7187 5.55041 10.6925 5.55041 10.6925H5.5461Z" fill="#020202"/>
<path d="M1.66038 10.9625C1.66038 10.9625 1.6 8.08039 1.64744 7.33156C1.69488 6.58274 1.84582 4.70631 1.89326 4.29707C1.9407 3.88783 1.96658 3.64838 1.96658 3.64838C1.96658 3.64838 2.00539 5.1678 1.99245 6.02982C1.97952 6.89185 1.94502 7.94543 1.89758 8.66378C1.85014 9.38213 1.66038 10.9712 1.66038 10.9712V10.9625Z" fill="#020202"/>
<path d="M2.45392 10.6926C2.45392 10.6926 3.63559 10.4793 4.45069 10.2224C5.26578 9.96553 6.30945 9.58676 6.90891 9.21235C7.50837 8.83793 9.58277 7.57102 9.7984 7.41429C10.014 7.25756 11.0405 6.80913 11.8771 6.84396C12.7138 6.87879 13.3305 7.14436 13.8566 7.64068C13.0933 7.21838 13.0933 7.17919 12.5413 7.05294C11.9892 6.92668 10.9801 7.07471 10.1909 7.52313C9.40163 7.97156 8.24584 8.78134 7.72832 9.08609C7.2108 9.39085 6.2922 9.8175 5.86093 9.98294C5.42966 10.1484 4.29543 10.4314 3.69166 10.5315C3.08788 10.6316 2.45823 10.6926 2.45823 10.6926H2.45392Z" fill="#020202"/>
<path d="M9.03937 8.55059C9.03937 8.55059 9.14718 8.57236 9.47926 8.31985C9.81134 8.06734 10.2555 7.70163 10.5704 7.5449C10.8852 7.38817 11.4286 7.17484 12.1876 7.18355C12.9466 7.19225 13.4469 7.65809 13.49 7.69728C13.5332 7.73646 13.7531 7.9672 13.6367 8.07604C13.5202 8.18489 13.3175 8.08475 13.227 8.00203C13.1364 7.91931 12.8906 7.6581 12.4766 7.56231C12.0626 7.46653 11.5537 7.44041 11.0146 7.57102C10.4755 7.70163 10.083 7.98026 9.75527 8.19359C9.42751 8.40692 9.31969 8.45481 9.26363 8.48529C9.20756 8.51576 9.117 8.55059 9.08681 8.55495C9.05662 8.5593 9.04368 8.54624 9.04368 8.54624L9.03937 8.55059Z" fill="#020202"/>
<path d="M2.15202 10.8014L2.39353 2.28134C2.39353 2.28134 2.39353 2.18556 2.39784 2.13767C2.40216 2.08978 2.4496 2.04625 2.51429 2.04625C2.57898 2.04625 3.38976 1.95047 3.76496 1.88516C4.14016 1.81986 5.08033 1.60653 5.64529 1.43673C6.21025 1.26694 6.98222 0.96654 7.27548 0.862053C7.56874 0.757565 8.00863 0.609541 8.43127 0.544236C8.85392 0.478931 9.43181 0.522468 9.71214 0.574712C9.99246 0.626955 10.303 0.666138 10.8032 0.835931C11.3035 1.00572 11.6485 1.26259 11.7434 1.35402C11.8383 1.44544 11.9289 1.54993 11.9935 1.70231C12.0582 1.85468 12.3429 2.74718 12.3429 2.74718C12.3429 2.74718 12.5887 3.50036 12.6361 3.62662C12.6836 3.75288 13.007 4.74551 13.0588 4.90224C13.1105 5.05897 13.434 6.02984 13.4857 6.16915C13.5375 6.30847 13.7272 6.89621 13.7919 7.08777C13.8566 7.27933 14.0377 7.80613 14.0377 7.80613L14.2016 8.28067C14.2016 8.28067 13.7747 7.14437 13.7186 6.98764C13.6625 6.83091 13.2701 5.77732 13.1925 5.55964C13.1148 5.34196 12.7439 4.34933 12.6448 4.05763C12.5456 3.76594 12.166 2.76024 12.1057 2.60351C12.0453 2.44678 11.8555 1.88951 11.8081 1.81115C11.7607 1.73278 11.7003 1.64571 11.5709 1.55428C11.4415 1.46286 11.2388 1.34531 11.0232 1.26259C10.8076 1.17987 10.2642 1.01008 9.9709 0.953479C9.67764 0.896882 9.40162 0.844638 9.15149 0.831577C8.90135 0.818516 8.59947 0.809809 8.25877 0.875114C7.91807 0.940418 7.52992 1.0928 7.28841 1.18858C7.04691 1.28436 6.69758 1.43238 6.46038 1.51075C6.22319 1.58911 5.68841 1.77197 5.39515 1.83727C5.10189 1.90258 4.65768 2.03754 4.34717 2.08543C4.03666 2.13332 3.73909 2.20733 3.40701 2.24216C3.07493 2.27699 2.64798 2.31617 2.64798 2.31617C2.64798 2.31617 2.56173 3.85301 2.5531 3.97491C2.54448 4.09681 2.46253 5.45515 2.45391 5.59447C2.44528 5.73379 2.34609 7.423 2.34178 7.51443C2.33747 7.60586 2.24259 9.08175 2.24259 9.08175L2.1779 10.2529L2.13908 10.8058L2.15202 10.8014Z" fill="#020202"/>
</g>
<defs>
<clipPath id="clip0_64_60">
<rect width="29.4211" height="13" fill="white"/>
</clipPath>
</defs>
</svg>
