<svg width="10" height="10" viewBox="0 0 10 10" fill="none" xmlns="http://www.w3.org/2000/svg">
<path d="M0.266841 7.6157C0.66203 6.81692 1.41456 5.73286 2.23165 4.98106C3.04875 4.22927 3.79237 3.58711 3.79237 3.58711C3.79237 3.58711 2.91962 2.90915 1.98786 2.41466C1.05722 1.9213 0.290218 1.44583 0.138822 1.28473C-0.0125748 1.12363 -0.0448579 0.82269 0.0653498 0.587754C0.175558 0.352817 0.616388 0.140256 0.836804 0.0843189C1.05722 0.0283817 1.46577 -0.0174868 1.93443 0.0977438C2.40309 0.212974 3.14671 0.610129 3.80796 1.14041C4.4692 1.6707 5.26849 2.47843 5.26849 2.47843C5.26849 2.47843 6.50415 1.65727 7.21104 1.25564C7.91792 0.854015 8.82742 0.402042 9.23596 0.235349C9.64451 0.0686565 9.78366 -0.00629938 9.9217 0.000413086C10.0597 0.00712555 9.97625 0.111169 9.96178 0.122356C9.9473 0.133544 9.45527 0.502729 9.14134 0.714172C8.82742 0.925614 8.33983 1.27466 7.84334 1.70874C7.34685 2.14281 6.83811 2.61268 6.5253 2.9181C6.21249 3.22351 5.96536 3.4674 5.96536 3.4674C5.96536 3.4674 6.76909 4.45973 7.07634 4.90275C7.38358 5.34577 8.16951 6.4813 8.60589 7.27449C9.04227 8.06768 9.44191 8.84856 9.69906 9.51757C9.95621 10.1866 9.64896 9.94717 9.51538 9.74355C9.38179 9.53994 9.15693 9.11594 8.60143 8.41449C8.04594 7.71303 7.3346 6.89188 6.69117 6.26874C6.04773 5.6456 5.46553 5.11084 5.185 4.8938C4.90447 4.67676 4.8733 4.64432 4.8733 4.64432C4.8733 4.64432 3.6432 6.07519 3.10998 6.85496C2.57675 7.63472 2.24724 8.23437 1.87431 8.96827C1.50139 9.70216 1.22977 10.0713 0.707671 9.98856C0.271293 9.9192 0.0553309 9.14391 0.0286139 8.96827C-0.00144271 8.77472 0.00523655 8.34512 0.115444 8.03635C0.225652 7.72758 0.266841 7.61682 0.266841 7.61682V7.6157Z" fill="#ED2124"/>
</svg>
