<svg width="299" height="32" viewBox="0 0 299 32" fill="none" xmlns="http://www.w3.org/2000/svg">
<path d="M171.697 5.525H176.397L181.372 19.525L186.297 5.525H190.997V24H187.572V10.15L182.747 24H179.947L175.122 10.15V24H171.697V5.525Z" fill="#787878"/>
<path d="M146.527 14.775C146.527 13.425 146.777 12.1667 147.277 11C147.777 9.83333 148.46 8.825 149.327 7.975C150.21 7.10833 151.244 6.43333 152.427 5.95C153.627 5.45 154.919 5.2 156.302 5.2C157.619 5.2 158.852 5.45 160.002 5.95C161.152 6.45 162.152 7.13333 163.002 8C163.869 8.86666 164.544 9.88333 165.027 11.05C165.527 12.2 165.777 13.4333 165.777 14.75C165.777 16.1 165.527 17.3583 165.027 18.525C164.544 19.6917 163.877 20.7083 163.027 21.575C162.177 22.425 161.169 23.1 160.002 23.6C158.852 24.0833 157.602 24.325 156.252 24.325C154.902 24.325 153.635 24.0833 152.452 23.6C151.269 23.1 150.235 22.425 149.352 21.575C148.485 20.7083 147.794 19.6917 147.277 18.525C146.777 17.3583 146.527 16.1083 146.527 14.775ZM149.977 14.75C149.977 15.6333 150.135 16.4583 150.452 17.225C150.785 17.9917 151.227 18.6583 151.777 19.225C152.344 19.775 153.01 20.2167 153.777 20.55C154.544 20.8667 155.36 21.025 156.227 21.025C157.11 21.025 157.919 20.8667 158.652 20.55C159.402 20.2333 160.044 19.8 160.577 19.25C161.127 18.7 161.552 18.05 161.852 17.3C162.169 16.5333 162.327 15.7 162.327 14.8C162.327 13.9 162.169 13.0667 161.852 12.3C161.535 11.5167 161.102 10.85 160.552 10.3C160.002 9.73333 159.344 9.29166 158.577 8.975C157.81 8.65833 156.977 8.5 156.077 8.5C155.227 8.5 154.427 8.66666 153.677 9C152.944 9.31666 152.302 9.75833 151.752 10.325C151.202 10.8917 150.769 11.5583 150.452 12.325C150.135 13.075 149.977 13.8833 149.977 14.75Z" fill="#787878"/>
<path d="M126.671 5.525H130.896C133.913 5.525 136.163 6.00833 137.646 6.975C138.88 7.775 139.821 8.85 140.471 10.2C141.138 11.55 141.471 13.0833 141.471 14.8C141.471 16.7167 141.063 18.4 140.246 19.85C139.43 21.2833 138.28 22.35 136.796 23.05C136.43 23.2167 136.046 23.3667 135.646 23.5C135.263 23.6167 134.838 23.7167 134.371 23.8C133.905 23.8667 133.388 23.9167 132.821 23.95C132.271 23.9833 131.655 24 130.971 24H126.671V5.525ZM130.846 20.725C131.863 20.725 132.73 20.6583 133.446 20.525C134.18 20.3917 134.813 20.1833 135.346 19.9C136.18 19.4667 136.83 18.7917 137.296 17.875C137.78 16.9583 138.021 15.9333 138.021 14.8C138.021 13.6 137.755 12.525 137.221 11.575C136.705 10.625 135.988 9.925 135.071 9.475C134.821 9.34167 134.555 9.23333 134.271 9.15C134.005 9.06667 133.696 9 133.346 8.95C133.013 8.9 132.638 8.86667 132.221 8.85C131.805 8.81667 131.321 8.8 130.771 8.8H130.096V20.725H130.846Z" fill="#787878"/>
<path d="M101.502 14.775C101.502 13.425 101.752 12.1667 102.252 11C102.752 9.83333 103.435 8.825 104.302 7.975C105.185 7.10833 106.218 6.43333 107.402 5.95C108.602 5.45 109.893 5.2 111.277 5.2C112.593 5.2 113.827 5.45 114.977 5.95C116.127 6.45 117.127 7.13333 117.977 8C118.843 8.86666 119.518 9.88333 120.002 11.05C120.502 12.2 120.752 13.4333 120.752 14.75C120.752 16.1 120.502 17.3583 120.002 18.525C119.518 19.6917 118.852 20.7083 118.002 21.575C117.152 22.425 116.143 23.1 114.977 23.6C113.827 24.0833 112.577 24.325 111.227 24.325C109.877 24.325 108.61 24.0833 107.427 23.6C106.243 23.1 105.21 22.425 104.327 21.575C103.46 20.7083 102.768 19.6917 102.252 18.525C101.752 17.3583 101.502 16.1083 101.502 14.775ZM104.952 14.75C104.952 15.6333 105.11 16.4583 105.427 17.225C105.76 17.9917 106.202 18.6583 106.752 19.225C107.318 19.775 107.985 20.2167 108.752 20.55C109.518 20.8667 110.335 21.025 111.202 21.025C112.085 21.025 112.893 20.8667 113.627 20.55C114.377 20.2333 115.018 19.8 115.552 19.25C116.102 18.7 116.527 18.05 116.827 17.3C117.143 16.5333 117.302 15.7 117.302 14.8C117.302 13.9 117.143 13.0667 116.827 12.3C116.51 11.5167 116.077 10.85 115.527 10.3C114.977 9.73333 114.318 9.29166 113.552 8.975C112.785 8.65833 111.952 8.5 111.052 8.5C110.202 8.5 109.402 8.66666 108.652 9C107.918 9.31666 107.277 9.75833 106.727 10.325C106.177 10.8917 105.743 11.5583 105.427 12.325C105.11 13.075 104.952 13.8833 104.952 14.75Z" fill="#C0C0C0"/>
<path d="M80.6695 5.525H84.0695V18.325L92.0945 5.525H95.5695V24H92.1695V11.2L84.1445 24H80.6695V5.525Z" fill="#C0C0C0"/>
<path d="M65.0387 5.525H67.7387L75.4637 24H71.7637L66.3887 10.225L61.0137 24H57.3137L65.0387 5.525Z" fill="#C0C0C0"/>
<path d="M45.3728 20.725C45.8228 20.725 46.2895 20.7083 46.7728 20.675C47.2728 20.6417 47.7228 20.5417 48.1228 20.375C48.5395 20.2083 48.8812 19.9583 49.1478 19.625C49.4145 19.275 49.5478 18.7917 49.5478 18.175C49.5478 17.5917 49.3978 17.1417 49.0978 16.825C48.8145 16.4917 48.4562 16.25 48.0228 16.1C47.5895 15.9333 47.1228 15.8333 46.6228 15.8C46.1228 15.75 45.6562 15.725 45.2228 15.725H44.1228V20.725H45.3728ZM40.6978 5.525H51.8228V8.8H44.1228V12.45H45.2728C45.9562 12.45 46.5478 12.4667 47.0478 12.5C47.5645 12.5167 48.0145 12.5583 48.3978 12.625C48.7812 12.675 49.1228 12.75 49.4228 12.85C49.7228 12.9333 50.0062 13.05 50.2728 13.2C51.1228 13.65 51.7895 14.325 52.2728 15.225C52.7562 16.125 52.9978 17.1333 52.9978 18.25C52.9978 19.3 52.7812 20.2417 52.3478 21.075C51.9312 21.9083 51.3228 22.5667 50.5228 23.05C50.2395 23.2167 49.9312 23.3667 49.5978 23.5C49.2812 23.6167 48.9145 23.7167 48.4978 23.8C48.0978 23.8667 47.6395 23.9167 47.1228 23.95C46.6062 23.9833 46.0062 24 45.3228 24H40.6978V5.525Z" fill="#C0C0C0"/>
<path d="M18.9908 5.525H22.3908V18.325L30.4158 5.525H33.8908V24H30.4908V11.2L22.4658 24H18.9908V5.525Z" fill="#C0C0C0"/>
<path d="M5.44999 20.725C5.89999 20.725 6.36666 20.7083 6.84999 20.675C7.34999 20.6417 7.79999 20.5417 8.19999 20.375C8.61666 20.2083 8.95833 19.9583 9.22499 19.625C9.49166 19.275 9.62499 18.7917 9.62499 18.175C9.62499 17.5917 9.47499 17.1417 9.17499 16.825C8.89166 16.4917 8.53333 16.25 8.09999 16.1C7.66666 15.9333 7.19999 15.8333 6.69999 15.8C6.19999 15.75 5.73333 15.725 5.29999 15.725H4.19999V20.725H5.44999ZM0.774994 5.525H11.9V8.8H4.19999V12.45H5.34999C6.03333 12.45 6.62499 12.4667 7.12499 12.5C7.64166 12.5167 8.09166 12.5583 8.47499 12.625C8.85833 12.675 9.19999 12.75 9.49999 12.85C9.79999 12.9333 10.0833 13.05 10.35 13.2C11.2 13.65 11.8667 14.325 12.35 15.225C12.8333 16.125 13.075 17.1333 13.075 18.25C13.075 19.3 12.8583 20.2417 12.425 21.075C12.0083 21.9083 11.4 22.5667 10.6 23.05C10.3167 23.2167 10.0083 23.3667 9.67499 23.5C9.35833 23.6167 8.99166 23.7167 8.57499 23.8C8.17499 23.8667 7.71666 23.9167 7.19999 23.95C6.68333 23.9833 6.08333 24 5.39999 24H0.774994V5.525Z" fill="#C0C0C0"/>
<g clip-path="url(#clip0_68_2)">
<path d="M250.502 32C250.502 32 244.655 24.1089 239.138 19.5054C233.616 14.9018 228.421 10.6285 220.571 7.3959C212.721 4.16335 208.174 2.79238 208.174 2.79238L218.134 0C218.134 0 226.305 2.68692 233.181 7.50595C240.057 12.325 245.035 16.603 247.037 18.5746C249.039 20.5462 250.502 21.9172 250.502 21.9172C250.502 21.9172 252.722 19.1798 258.189 14.6863C263.656 10.1929 269.771 5.86445 274.753 3.45264C279.736 1.04084 282.925 0 282.925 0L292.749 2.76487C292.749 2.76487 284.025 5.17209 275.727 9.76644C269.544 13.1916 262.093 18.625 255.938 25.5624C252.5 29.4415 250.502 31.9954 250.502 31.9954V32Z" fill="#CBE21D"/>
<path d="M202 23.091L205.51 18.9918C205.51 18.9918 211.281 17.9968 215.666 18.3132C220.05 18.6296 224.48 19.0606 230.518 21.6879C236.556 24.3152 239.89 26.6216 239.89 26.6216C239.89 26.6216 235.953 24.9709 229.848 23.3157C223.742 21.6604 213.007 21.5962 208.98 22.1143C204.953 22.6325 202 23.0864 202 23.0864V23.091Z" fill="#757576"/>
<path d="M204.346 15.5254L207.589 12.1507C207.589 12.1507 210.901 11.9903 215.439 12.921C219.978 13.8518 226.065 15.9106 228.969 17.4925C231.872 19.0744 237.38 22.5866 239.169 24.1502C240.959 25.7137 242.838 27.2956 242.838 27.2956C242.838 27.2956 239.64 25.0534 236.909 23.5357C234.178 22.0181 229.395 19.4137 224.652 17.9877C219.91 16.5617 215.571 15.5667 211.055 15.5438C206.539 15.5208 204.346 15.5208 204.346 15.5208V15.5254Z" fill="#757576"/>
<path d="M204.686 8.73477L209.56 6.26795C209.56 6.26795 212.803 6.5614 216.739 7.96446C220.675 9.36753 224.924 11.4079 227.723 13.1503C230.522 14.8927 235.351 18.3361 237.14 19.918C238.929 21.4999 245.728 28.2035 245.728 28.2035C245.728 28.2035 239.061 22.6095 235.754 20.2803C232.448 17.951 228.126 15.3466 224.326 13.7372C220.526 12.1278 215.312 10.2708 211.888 9.75269C208.464 9.23456 204.686 8.73477 204.686 8.73477Z" fill="#757576"/>
<path d="M254.973 28.5382C254.973 28.5382 261.482 21.9951 264.154 19.7988C266.827 17.6025 273.675 12.6093 277.652 10.7614C281.629 8.9136 285.873 7.36381 288.365 6.78607C290.856 6.20834 291.241 6.23127 291.241 6.23127L296.54 8.75312C296.54 8.75312 293.913 8.84482 291.653 9.19329C289.393 9.54177 282.793 11.2979 279.274 12.6368C275.754 13.9756 269.934 17.2128 267.216 18.9689C264.499 20.725 260.458 23.7558 259.108 24.9801C257.759 26.2043 254.973 28.5382 254.973 28.5382Z" fill="#757576"/>
<path d="M258.443 27.0618C258.443 27.0618 263.054 23.0176 265.703 21.3074C268.353 19.5971 272.416 17.0982 276.071 15.7364C279.727 14.3746 283.219 13.1228 286.829 12.7331C290.439 12.3433 293.361 12.1553 293.361 12.1553L296.694 15.5988C296.694 15.5988 291.694 15.3237 288.908 15.5529C286.123 15.7822 281.829 16.2912 277.969 17.5429C274.11 18.7947 270.047 20.3857 267.556 21.6788C265.065 22.9718 261.985 24.7279 260.888 25.5166C259.792 26.3052 258.447 27.0663 258.447 27.0663L258.443 27.0618Z" fill="#757576"/>
<path d="M261.346 26.4565C261.346 26.4565 265.481 23.7971 269.2 22.2473C272.919 20.6975 275.641 19.7025 279.292 19.056C282.943 18.4095 288.174 18.1298 291.44 18.5012C294.706 18.8726 295.576 19.1248 295.576 19.1248L299 23.0543C299 23.0543 294.181 22.151 290.598 21.9218C287.015 21.6925 281.715 21.2294 276.121 22.1969C270.527 23.1644 265.912 24.6454 263.815 25.4799C261.717 26.3144 261.351 26.4519 261.351 26.4519L261.346 26.4565Z" fill="#757576"/>
</g>
<defs>
<clipPath id="clip0_68_2">
<rect width="97" height="32" fill="white" transform="translate(202)"/>
</clipPath>
</defs>
</svg>
